<svg xmlns="http://www.w3.org/2000/svg" xmlns:xlink="http://www.w3.org/1999/xlink" width="500" zoomAndPan="magnify" viewBox="0 0 375 374.999991" height="500" preserveAspectRatio="xMidYMid meet" version="1.0"><defs><g/><clipPath id="6656350a8f"><path d="M 58.59375 0 L 316.40625 0 C 331.945312 0 346.851562 6.171875 357.839844 17.160156 C 368.828125 28.148438 375 43.054688 375 58.59375 L 375 316.40625 C 375 348.765625 348.765625 375 316.40625 375 L 58.59375 375 C 43.054688 375 28.148438 368.828125 17.160156 357.839844 C 6.171875 346.851562 0 331.945312 0 316.40625 L 0 58.59375 C 0 26.234375 26.234375 0 58.59375 0 Z M 58.59375 0 " clip-rule="nonzero"/></clipPath><clipPath id="fd7b7a87ff"><path d="M 204 278 L 213 278 L 213 288 L 204 288 Z M 204 278 " clip-rule="nonzero"/></clipPath><clipPath id="397c226f46"><path d="M 204.351562 284.757812 L 207.675781 278.859375 L 212.3125 281.472656 L 208.988281 287.371094 Z M 204.351562 284.757812 " clip-rule="nonzero"/></clipPath></defs><g clip-path="url(#6656350a8f)"><rect x="-37.5" width="450" fill="#000000" y="-37.499999" height="449.999989" fill-opacity="1"/></g><g fill="#feb3eb" fill-opacity="1"><g transform="translate(40.757577, 318.851583)"><g><path d="M 84.34375 3.15625 C 54.832031 3.15625 35.816406 -8.101562 27.296875 -30.625 C 21.929688 -44.96875 19.25 -63.863281 19.25 -87.3125 L 19.25 -185.140625 C 19.25 -238.796875 41.585938 -265.625 86.265625 -265.625 C 110.066406 -265.625 126.546875 -258.566406 135.703125 -244.453125 C 144.859375 -230.335938 149.4375 -210.273438 149.4375 -184.265625 L 149.4375 -128.09375 L 65.96875 -128.09375 L 65.96875 -76.46875 C 65.96875 -58.269531 67.539062 -46.691406 70.6875 -41.734375 C 73.84375 -36.773438 78.566406 -34.296875 84.859375 -34.296875 C 91.160156 -34.296875 95.25 -35.753906 97.125 -38.671875 C 100.269531 -43.804688 102.078125 -49.054688 102.546875 -54.421875 C 103.015625 -59.785156 103.25 -67.132812 103.25 -76.46875 L 103.25 -99.5625 L 149.09375 -99.5625 L 149.09375 -85.5625 C 149.09375 -61.769531 147.222656 -44.679688 143.484375 -34.296875 C 139.753906 -23.910156 135.441406 -16.382812 130.546875 -11.71875 C 120.273438 -1.800781 104.875 3.15625 84.34375 3.15625 Z M 65.796875 -155.21875 L 103.25 -155.21875 L 103.25 -188.8125 C 103.25 -203.15625 102.109375 -213.445312 99.828125 -219.6875 C 97.554688 -225.9375 92.921875 -229.0625 85.921875 -229.0625 C 85.804688 -229.0625 85.75 -229.0625 85.75 -229.0625 C 73.613281 -229.0625 67.078125 -219.785156 66.140625 -201.234375 C 65.910156 -197.734375 65.796875 -193.1875 65.796875 -187.59375 Z M 65.796875 -155.21875 "/></g></g></g><g fill="#feb3eb" fill-opacity="1"><g transform="translate(177.092806, 286.947726)"><g><path d="M 133.421875 -28.53125 C 133.421875 -8.789062 128.613281 6.679688 119 17.890625 C 109.382812 29.097656 93.132812 34.703125 70.25 34.703125 C 47.375 34.703125 29.097656 29.203125 15.421875 18.203125 L 29.765625 -7.5625 C 42.003906 0.257812 53.414062 4.171875 64 4.171875 C 74.59375 4.171875 82 1.5 86.21875 -3.84375 C 90.4375 -9.195312 92.546875 -16.398438 92.546875 -25.453125 L 92.546875 -43.8125 C 89.972656 -36.40625 86.035156 -31.179688 80.734375 -28.140625 C 75.441406 -25.109375 68.6875 -23.59375 60.46875 -23.59375 C 44.320312 -23.59375 33.132812 -29.609375 26.90625 -41.640625 C 20.6875 -53.671875 17.578125 -69.710938 17.578125 -89.765625 L 17.578125 -164.265625 C 17.578125 -210.847656 32.179688 -234.140625 61.390625 -234.140625 C 61.597656 -234.140625 61.800781 -234.140625 62 -234.140625 C 78.039062 -234.140625 88.222656 -226.375 92.546875 -210.84375 L 92.546875 -231.359375 L 133.421875 -231.359375 Z M 58.765625 -91.625 C 58.765625 -78.976562 59.972656 -69.644531 62.390625 -63.625 C 64.804688 -57.613281 69.175781 -54.609375 75.5 -54.609375 C 81.820312 -54.609375 86.242188 -57.304688 88.765625 -62.703125 C 91.285156 -68.097656 92.546875 -77.835938 92.546875 -91.921875 L 92.546875 -167.65625 C 92.546875 -178.457031 91.234375 -186.738281 88.609375 -192.5 C 85.984375 -198.257812 81.328125 -201.140625 74.640625 -201.140625 C 67.960938 -201.140625 63.644531 -198.179688 61.6875 -192.265625 C 59.738281 -186.347656 58.765625 -178.195312 58.765625 -167.8125 Z M 58.765625 -91.625 "/></g></g></g><g fill="#feb3eb" fill-opacity="1"><g transform="translate(181.533391, 287.885294)"><g><path d="M 133.5625 -28.5625 C 133.5625 -8.800781 128.75 6.6875 119.125 17.90625 C 109.5 29.125 93.234375 34.734375 70.328125 34.734375 C 47.421875 34.734375 29.125 29.226562 15.4375 18.21875 L 29.796875 -7.5625 C 42.046875 0.257812 53.472656 4.171875 64.078125 4.171875 C 74.679688 4.171875 82.09375 1.492188 86.3125 -3.859375 C 90.53125 -9.210938 92.640625 -16.421875 92.640625 -25.484375 L 92.640625 -43.84375 C 90.066406 -36.4375 86.128906 -31.210938 80.828125 -28.171875 C 75.523438 -25.140625 68.757812 -23.625 60.53125 -23.625 C 44.363281 -23.625 33.164062 -29.644531 26.9375 -41.6875 C 20.71875 -53.726562 17.609375 -69.785156 17.609375 -89.859375 L 17.609375 -164.4375 C 17.609375 -211.070312 32.222656 -234.390625 61.453125 -234.390625 C 61.660156 -234.390625 61.863281 -234.390625 62.0625 -234.390625 C 78.125 -234.390625 88.316406 -226.613281 92.640625 -211.0625 L 92.640625 -231.609375 L 133.5625 -231.609375 Z M 58.828125 -91.71875 C 58.828125 -79.050781 60.035156 -69.707031 62.453125 -63.6875 C 64.867188 -57.664062 69.242188 -54.65625 75.578125 -54.65625 C 81.910156 -54.65625 86.335938 -57.359375 88.859375 -62.765625 C 91.378906 -68.171875 92.640625 -77.925781 92.640625 -92.03125 L 92.640625 -167.84375 C 92.640625 -178.644531 91.328125 -186.925781 88.703125 -192.6875 C 86.078125 -198.457031 81.414062 -201.34375 74.71875 -201.34375 C 68.03125 -201.34375 63.707031 -198.382812 61.75 -192.46875 C 59.800781 -186.550781 58.828125 -178.390625 58.828125 -167.984375 Z M 58.828125 -91.71875 "/></g></g></g><g clip-path="url(#fd7b7a87ff)"><g clip-path="url(#397c226f46)"><path fill="#feb3eb" d="M 204.351562 284.757812 L 207.679688 278.855469 L 212.316406 281.46875 L 208.988281 287.371094 Z M 204.351562 284.757812 " fill-opacity="1" fill-rule="nonzero"/></g></g></svg>